<?xml version="1.0" encoding="utf-8"?>
<!-- Generator: Adobe Illustrator 16.0.0, SVG Export Plug-In . SVG Version: 6.00 Build 0)  -->
<!DOCTYPE svg PUBLIC "-//W3C//DTD SVG 1.1//EN" "http://www.w3.org/Graphics/SVG/1.1/DTD/svg11.dtd">
<svg version="1.1" xmlns="http://www.w3.org/2000/svg" xmlns:xlink="http://www.w3.org/1999/xlink" x="0px" y="0px"
	 width="2195.558px" height="737.615px" viewBox="0 0 2195.558 737.615" enable-background="new 0 0 2195.558 737.615"
	 xml:space="preserve">
<g id="Layer_5">
	<rect fill="#FFFFFF" width="2195.558" height="737.615"/>
</g>
<g id="Layer_2">
	<linearGradient id="SVGID_1_" gradientUnits="userSpaceOnUse" x1="265.6807" y1="330.084" x2="831.7373" y2="330.084">
		<stop  offset="0.457" style="stop-color:#2484C6"/>
		<stop  offset="1" style="stop-color:#2484C6;stop-opacity:0"/>
	</linearGradient>
	<path fill="url(#SVGID_1_)" d="M548.699,89.893c-125.146,0-231.242,68.953-268.574,164.543c-3.115,7.965-5.751,16.086-7.893,24.398
		c-4.24,16.504-6.552,33.646-6.552,51.244c0,44.553,14.386,86.244,39.301,122.011c32.496-0.651,68.895-5.045,107.088-13.032
		c-32.191-33.357-51.507-76.099-51.507-122.776c0-29.577,8.004-57.51,21.95-82.575c4.738-8.599,10.013-16.949,16.144-24.78
		c40.413-51.473,108.943-85.389,186.766-85.389c124.225,0,224.879,86.306,224.879,192.744c0,106.481-100.654,192.78-224.879,192.78
		c-37.908,0-73.598-8.137-104.931-22.353c-41.54,11.272-82.083,18.725-120.141,22.544c50.021,37.906,116.015,61.024,188.349,61.024
		c156.326,0,283.038-107.564,283.038-240.198C831.737,197.402,705.025,89.893,548.699,89.893z"/>
	<path fill="#98A5D4" d="M758.07,257.647c-20.852-74.964-180.244-96.098-356.002-47.21c-3.087,0.871-6.097,1.782-9.182,2.638
		c-5.95,7.621-11.099,15.743-15.707,24.126c6.075-1.896,12.248-3.715,18.49-5.48c141.714-39.427,268.7-27.809,283.664,25.927
		c14.982,53.754-87.791,129.275-229.498,168.718c-14.848,4.125-29.48,7.583-43.904,10.611
		c-37.155,7.77-72.563,12.045-104.162,12.678c-73.102,1.523-126.207-15.613-135.575-49.182
		c-9.962-35.836,32.397-81.338,103.718-119.384c2.063-8.088,4.646-15.986,7.656-23.737
		c-106.355,52.23-171.449,121.822-155.984,177.434c15.873,56.988,111.746,82.822,234.054,70.464
		c37.023-3.72,76.467-10.967,116.859-21.933c1.709-0.447,3.398-0.872,5.108-1.34C653.386,433.076,778.96,332.648,758.07,257.647z"/>
	<g>
		<path fill="#FFFFFF" d="M281.924,444.124l29.5-230.313h58.998l29.776,230.313h-45.979l-3.74-45.425h-19.526l-3.739,45.425H281.924
			z M333.445,361.306h14.817l-7.34-88.774L333.445,361.306z"/>
		<path fill="#FFFFFF" d="M426.928,444.124l-25.621-187.797h41.408l8.864,131.016l8.724-131.016h41.134l-25.76,187.797H426.928z"/>
		<path fill="#FFFFFF" d="M513.209,241.925v-28.114h41.963v28.114H513.209z M513.209,444.124V256.327h41.963v187.797H513.209z"/>
		<path fill="#FFFFFF" d="M574.977,444.124V213.811h41.965v230.313H574.977z"/>
		<path fill="#FFFFFF" d="M634.667,320.173v-16.757c0-21.696,2.885-35.154,8.656-40.371c5.769-5.215,19.087-7.826,39.955-7.826
			c21.235,0,34.623,2.771,40.163,8.311c5.539,5.54,8.31,18.835,8.31,39.887v140.708h-41.687v-8.448
			c-4.154,3.233-8.357,5.633-12.604,7.202c-4.248,1.568-8.772,2.354-13.572,2.354c-10.896,0-18.488-3.186-22.781-9.557
			c-4.293-6.369-6.44-19.25-6.44-38.639v-18.42c0-8.954,1.292-15.695,3.877-20.221c2.585-4.522,7.569-8.954,14.958-13.295
			l36.285-21.466v-28.668c0-2.493-0.485-4.339-1.455-5.54c-0.969-1.198-2.471-1.801-4.5-1.801c-2.586,0-4.432,0.762-5.539,2.285
			c-1.108,1.522-1.662,4.502-1.662,8.934v21.327H634.667z M689.787,363.244c-5.078,2.032-8.541,4.179-10.387,6.44
			c-1.848,2.264-2.77,6.672-2.77,13.227v18.974c0,4.248,0.506,7.201,1.523,8.863c1.015,1.661,2.722,2.492,5.124,2.492
			c2.399,0,4.085-0.738,5.054-2.216c0.97-1.476,1.455-4.522,1.455-9.14V363.244z"/>
	</g>
	<g>
		<path fill="#2B307A" d="M267.975,439.475l29.5-230.313h58.997l29.776,230.313h-45.979l-3.739-45.425h-19.527l-3.738,45.425
			H267.975z M319.495,356.655h14.818l-7.341-88.773L319.495,356.655z"/>
		<path fill="#2B307A" d="M412.979,439.475l-25.622-187.797h41.409l8.864,131.016l8.724-131.016h41.134l-25.761,187.797H412.979z"/>
		<path fill="#2B307A" d="M499.26,237.275v-28.114h41.963v28.114H499.26z M499.26,439.475V251.678h41.963v187.797H499.26z"/>
		<path fill="#2B307A" d="M561.026,439.475V209.161h41.965v230.313H561.026z"/>
		<path fill="#2B307A" d="M620.718,315.523v-16.757c0-21.696,2.884-35.154,8.655-40.371c5.77-5.215,19.088-7.826,39.955-7.826
			c21.236,0,34.623,2.771,40.164,8.31c5.539,5.54,8.309,18.836,8.309,39.888v140.708h-41.686v-8.449
			c-4.155,3.233-8.357,5.634-12.604,7.202c-4.248,1.569-8.773,2.354-13.572,2.354c-10.896,0-18.488-3.186-22.781-9.557
			c-4.294-6.369-6.44-19.249-6.44-38.638v-18.42c0-8.955,1.292-15.695,3.876-20.221c2.586-4.522,7.57-8.954,14.958-13.296
			l36.286-21.466v-28.667c0-2.493-0.486-4.339-1.455-5.54c-0.97-1.199-2.471-1.801-4.5-1.801c-2.586,0-4.432,0.762-5.54,2.285
			c-1.108,1.522-1.662,4.501-1.662,8.933v21.328H620.718z M675.838,358.595c-5.078,2.032-8.541,4.179-10.387,6.439
			c-1.849,2.264-2.771,6.672-2.771,13.227v18.975c0,4.247,0.507,7.2,1.524,8.862c1.014,1.662,2.722,2.493,5.123,2.493
			c2.4,0,4.085-0.738,5.055-2.216c0.969-1.477,1.455-4.523,1.455-9.14V358.595z"/>
	</g>
	<g>
		<path fill="#2A3C98" d="M930.605,285.911v8.788h-43.453v76.042h-9.276v-76.042h-43.454v-8.788H930.605z"/>
		<path fill="#2A3C98" d="M1052.664,308.071c0,5.391-0.814,9.43-2.441,12.123c-1.303,2.124-3.297,3.674-5.981,4.652
			c3.418,0.653,6.265,2.442,8.544,5.372c2.93,3.825,4.395,9.031,4.395,15.623v24.899h-10.008v-24.777
			c0-5.533-1.307-9.338-3.912-11.413c-2.609-2.075-7.701-3.113-15.281-3.113h-61.244v39.304h-9.277v-84.83h65.303
			c10.414,0,18.003,1.775,22.764,5.326C1050.283,294.788,1052.664,300.4,1052.664,308.071z M966.734,321.918h57.703
			c6.846,0,11.715-1.103,14.609-3.311c2.893-2.207,4.34-5.518,4.34-9.933c0-4.169-1.447-7.438-4.34-9.809
			c-2.895-2.37-7.52-3.558-13.875-3.558h-58.438V321.918z"/>
		<path fill="#2A3C98" d="M1126.508,285.911h14.281l46.138,84.83l-10.816,0.042l-10.968-20.426h-63.263l-11.099,20.404l-10.41-0.021
			L1126.508,285.911z M1133.648,292.198l-26.711,49.37h53.563L1133.648,292.198z"/>
		<path fill="#2A3C98" d="M1212.559,370.741v-84.83h59.198c16.19,0,27.177,2.648,32.956,7.944
			c5.777,5.299,8.666,15.688,8.666,31.171v6.845c0,15.973-2.563,26.445-7.689,31.415s-15.584,7.455-31.369,7.455H1212.559z
			 M1304.104,331.871v-6.969c0-12.717-1.975-20.929-5.921-24.638c-3.948-3.71-12.31-5.565-25.083-5.565h-51.266v67.253h53.586
			c12.611,0,20.545-1.67,23.801-5.013C1302.474,353.598,1304.104,345.24,1304.104,331.871z"/>
		<path fill="#2A3C98" d="M1347.921,370.741v-84.83h9.276v84.83H1347.921z"/>
		<path fill="#2A3C98" d="M1393.814,285.911h20.553l68.305,75.996v-75.996h9.277v84.83h-13.305l-70.549-78.118h-5.006v78.118h-9.275
			V285.911z"/>
		<path fill="#2A3C98" d="M1520.998,331.926v-7.688c0-15.379,2.909-25.734,8.729-31.064c5.816-5.329,16.783-7.995,32.894-7.995
			h30.271c21.482,0,32.225,8.017,32.225,24.046h-9.277c0-5.045-1.629-8.789-4.883-11.229c-3.66-2.686-9.684-4.027-18.064-4.027
			h-31.612c-12.776,0-21.138,1.848-25.083,5.544c-3.947,3.696-5.92,11.879-5.92,24.551v7.796c0,12.916,1.748,21.161,5.248,24.734
			c3.498,3.574,11.31,5.36,23.436,5.36h33.932c9.113,0,15.115-1.373,18.004-4.126c2.887-2.752,4.333-8.902,4.333-18.453h-43.574
			v-8.789h53.462c0,16.52-1.912,27.262-5.729,32.224c-4.066,5.291-12.926,7.934-26.58,7.934h-32.794
			c-15.607,0-26.01-2.521-31.211-7.567C1523.598,358.129,1520.998,347.715,1520.998,331.926z"/>
		<path fill="#2A3C98" d="M1735.088,285.911h9.277v76.041h66.889v8.789h-76.166V285.911z"/>
		<path fill="#2A3C98" d="M1866.507,363.297h17.407c4.786,0,8.359-1.059,10.712-3.175c1.786-1.628,2.679-3.458,2.679-5.492h10.009
			c0,4.069-1.669,7.608-5.005,10.619c-4.07,3.661-9.93,5.492-17.577,5.492h-18.309c-7.243,0-12.776-1.789-16.599-5.37
			c-4.071-3.825-6.104-9.521-6.104-17.089v-29.05h-7.934v-8.788h7.934v-11.597h9.275v11.597h47.604v8.788h-47.604v30.148
			c0,4.721,1.236,8.221,3.711,10.496C1859.184,362.156,1862.448,363.297,1866.507,363.297z"/>
		<path fill="#2A3C98" d="M1930.99,347.109v-13.156c0-7.227,2.156-12.91,6.47-17.053c4.718-4.466,11.554-6.7,20.506-6.7h24.899
			c6.021,0,10.455,0.692,13.305,2.075c1.709,0.814,3.377,2.4,5.004,4.76v-31.124h9.277v84.83h-9.277v-5.858
			c-1.627,1.992-3.459,3.386-5.492,4.184c-2.768,1.119-7.039,1.675-12.816,1.675h-24.899
			C1939.98,370.741,1930.99,362.865,1930.99,347.109z M1981.645,317.768h-20.505c-7.243,0-12.532,1.359-15.868,4.08
			c-3.338,2.72-5.005,6.754-5.005,12.11v13.148c0,10.793,6.958,16.19,20.873,16.19h20.505c6.51,0,11.453-1.502,14.831-4.504
			c3.376-3.002,5.065-6.898,5.065-11.687v-13.148c0-4.868-1.587-8.723-4.76-11.565
			C1993.281,319.312,1988.236,317.768,1981.645,317.768z"/>
		<path fill="#2A3C98" d="M2040.844,361.222h10.008v9.52h-10.008V361.222z"/>
	</g>
	<g id="Layer_4">
		<text transform="matrix(1 0 0 1 831.7373 508.2783)" fill="#ED1F24" font-family="'datm8'" font-size="131" letter-spacing="6">雅維樂貿易有限公司</text>
	</g>
</g>
</svg>
